<svg id="Capa_1" enable-background="new 0 0 512.004 512.004" height="512" viewBox="0 0 512.004 512.004" width="512" xmlns="http://www.w3.org/2000/svg"><g><ellipse cx="383.699" cy="76.126" fill="#756e78" rx="120.804" ry="65.691"/><path d="m262.895 146.487c0 36.28 54.086 65.691 120.804 65.691s120.804-29.411 120.804-65.691v-70.361c0 36.28-54.086 65.691-120.804 65.691s-120.804-29.411-120.804-65.691z" fill="#665e66"/><path d="m84.937 496.42.01-.01c6.526-6.526 6.847-16.914.91-23.981-27.856-33.164-43.027-74.657-43.027-118.482 0-49.303 19.2-95.655 54.063-130.517 33.654-33.655 74.853-58.942 119.957-73.762 8.955-2.942 14.125-12.278 11.685-21.383l-.005-.019c-2.626-9.802-12.953-15.363-22.595-12.201-50.435 16.54-96.368 44.729-134.023 82.383-81.29 81.29-85.633 210.388-13.03 296.787 6.68 7.951 18.713 8.526 26.055 1.185z" fill="#ecf4ff"/><path d="m96.997 353.947h.005c8.899 0 16.328-6.632 17.517-15.451 3.311-24.572 14.504-47.274 32.336-65.105 24.969-24.969 55.352-43.936 88.623-55.442 8.793-3.041 13.787-12.302 11.379-21.288-2.643-9.864-13.095-15.491-22.749-12.16-38.384 13.245-73.435 35.111-102.234 63.91-23.412 23.412-38.089 53.232-42.391 85.505-1.413 10.6 6.819 20.031 17.514 20.031z" fill="#ecf4ff"/><path d="m472.704 23.087c-49.434-26.881-128.556-26.891-178.009 0-25.343 13.781-39.3 32.617-39.3 53.039v70.361c0 20.422 13.957 39.258 39.3 53.039 49.433 26.881 128.557 26.891 178.009 0 25.343-13.781 39.3-32.617 39.3-53.039v-70.361c0-20.422-13.957-39.258-39.3-53.039zm12.116 89.498c2.941 2.917 7.689 2.897 10.607-.045.538-.543 1.063-1.089 1.576-1.64v35.587c0 31.543-51.887 58.191-113.305 58.191-61.417 0-113.304-26.648-113.304-58.191v-35.543c6.267 6.705 14.418 12.848 24.3 18.222 23.897 12.995 55.506 20.151 89.004 20.151 29.088 0 56.451-5.294 79.132-15.31 3.789-1.673 5.504-6.102 3.83-9.891-1.672-3.789-6.102-5.504-9.891-3.831-20.488 9.048-46.439 14.031-73.071 14.031-61.417 0-113.304-26.648-113.304-58.191 0-31.542 51.887-58.19 113.304-58.19 61.418 0 113.305 26.648 113.305 58.19 0 8.972-4.114 17.669-12.229 25.853-2.915 2.942-2.894 7.69.046 10.607z"/><path d="m53.14 500.061c4.7 5.594 11.761 9.02 19.326 9.02 6.637 0 13.063-2.648 17.773-7.358.017-.016.035-.034.053-.053 9.254-9.297 9.82-23.931 1.309-34.065-58.604-69.772-54.7-173.576 10.596-238.872 32.639-32.64 73.095-57.516 116.994-71.939 13.162-4.325 20.052-18.173 16.559-30.561-3.845-14.145-18.692-21.707-32.15-17.293-14.829 4.863-29.461 10.788-43.491 17.607-3.725 1.811-5.276 6.299-3.466 10.024 1.811 3.724 6.294 5.276 10.024 3.466 13.422-6.524 27.42-12.192 41.606-16.845 5.568-1.827 11.502 1.375 13.013 7.015.007.028.015.057.023.086 1.35 5.178-1.627 10.549-6.8 12.249-46.122 15.154-88.627 41.291-122.92 75.584-72.323 72.324-73.572 185.196-11.474 259.126 3.482 4.147 3.28 10.103-.472 13.854-.012.012-.024.025-.038.039-4.196 4.163-11.099 3.887-14.98-.733-70.175-83.508-64.644-209.424 12.592-286.659 17.924-17.924 37.929-33.794 59.46-47.168 3.518-2.186 4.599-6.81 2.413-10.329-2.188-3.52-6.812-4.598-10.329-2.414-22.505 13.98-43.416 30.569-62.151 49.305-83.996 83.996-88.626 217.477-13.47 306.914z"/><path d="m241.576 178.979c-6.121-3.252-13.379-3.824-19.914-1.569-39.354 13.581-75.693 36.298-105.091 65.696-24.568 24.568-39.964 55.626-44.522 89.817-2.01 15.087 9.722 28.523 24.954 28.523 12.537 0 23.263-9.436 24.949-21.95.246-1.822.541-3.656.879-5.451.766-4.071-1.914-7.991-5.985-8.756-4.065-.769-7.991 1.914-8.757 5.985-.385 2.048-.723 4.141-1.002 6.22-.688 5.104-5.023 8.953-10.089 8.953-2.972 0-5.687-1.231-7.645-3.468-1.966-2.245-2.83-5.112-2.436-8.073 4.119-30.898 18.041-58.974 40.261-81.193 27.798-27.799 62.161-49.281 99.376-62.123 5.552-1.916 11.541 1.347 13.059 7.012 1.372 5.122-1.521 10.507-6.586 12.259-34.251 11.845-65.883 31.634-91.475 57.227-8.445 8.444-15.564 17.993-21.161 28.382-1.965 3.647-.602 8.195 3.046 10.16 3.644 1.963 8.194.601 10.159-3.046 4.904-9.104 11.149-17.478 18.562-24.89 23.995-23.996 53.654-42.55 85.771-53.658 12.469-4.312 19.572-17.629 16.172-30.317-1.803-6.732-6.369-12.469-12.525-15.74z"/></g></svg>